<svg width="512" height="110" viewBox="0 0 512 110" fill="none" xmlns="http://www.w3.org/2000/svg">
<g clip-path="url(#clip0_2226_121807)">
<path d="M219.02 31.4004L199.24 56.3104H196.68L177.54 31.2204V76.0004H163.26V11.9004H179.65L198.33 36.5304L217.1 11.9004H233.31V76.0004H219.02V31.4004Z" fill="#3D155F"/>
<path d="M255.74 57.5905C256.38 61.9905 260.59 65.5605 268.01 65.5605C271.58 65.5605 276.53 64.7405 279.73 61.9905L287.15 70.2305C282.3 74.9905 274.51 76.9105 267.74 76.9105C251.35 76.9105 242.38 67.3005 242.38 52.8305C242.38 38.3605 251.63 29.4805 266.37 29.4805C281.11 29.4805 291.83 39.0905 288.99 57.5905H255.75H255.74ZM277.17 47.9705C276.9 43.0305 271.86 40.7405 266.37 40.7405C260.88 40.7405 257.03 43.4905 255.75 47.9705H277.18H277.17Z" fill="#3D155F"/>
<path d="M326.24 43.4909C322.85 41.1109 319.65 40.1909 315.53 40.1909C311.41 40.1909 309.03 41.7509 309.03 43.9409C309.03 46.4109 311.32 47.7909 315.71 47.8809C324.59 48.1509 335.31 49.9909 335.4 62.4409C335.49 69.7709 330 77.6409 315.62 77.6409C308.94 77.6409 302.07 76.3609 294.38 69.9509L300.06 60.6109C305.65 65.1909 311.05 66.2009 315.81 66.2909C319.66 66.3809 322.68 64.8209 322.59 62.4409C322.59 60.3309 321.03 58.5909 314.9 58.4109C306.48 58.0409 295.95 54.5609 295.95 43.9409C295.95 33.3209 305.66 29.3809 315.45 29.3809C322.41 29.3809 327.99 31.1209 332.76 35.2409L326.26 43.4809L326.24 43.4909Z" fill="#3D155F"/>
<path d="M356.55 11.8105V36.2605C360.3 31.4105 365.71 29.9405 370.29 29.9405C380.91 29.9405 388.33 35.5205 388.33 51.6405V75.9106H375.14V51.7405C375.14 45.4205 371.75 41.9405 366.53 41.9405C361.04 41.9405 356.46 45.7905 356.46 53.0205V75.9106H343.27V11.8105H356.55Z" fill="#3D155F"/>
<path d="M457.429 31.6913C454.169 26.4413 447.329 24.6913 441.449 24.6113C434.609 24.6113 425.789 26.6013 425.789 34.7913C425.789 41.3113 432.949 43.0613 441.609 44.5713C452.579 46.4813 463.709 48.9413 463.709 60.7913C463.629 73.3513 451.539 76.7713 441.449 76.7713C432.069 76.7713 422.529 73.3513 418.229 64.4413L423.079 61.8213C426.899 68.9813 434.689 71.4413 441.449 71.4413C448.209 71.4413 458.069 69.6113 458.069 60.7113C458.149 53.1613 449.719 51.2513 441.049 49.7413C430.549 47.9113 420.219 45.6113 420.219 34.7913C420.059 23.1013 431.989 19.3613 441.369 19.3613C448.999 19.3613 457.189 21.4313 462.119 29.0613L457.429 31.6813V31.6913Z" fill="#FF6600"/>
<path d="M506.48 94.6702V67.9502C503.3 73.9102 497.1 76.7002 491.05 76.7002C479.6 76.7002 471.17 69.0702 471.17 56.2702C471.17 43.4702 479.44 36.3102 490.49 35.9902C497.33 35.9902 503.37 39.4102 506.39 44.9802L506.55 36.6302H511.72V94.6702H506.47H506.48ZM506 56.3402C506 47.5902 499.96 41.1502 491.29 41.1502C482.62 41.1502 476.5 46.4802 476.5 56.2602C476.5 66.0402 483.02 71.5302 491.29 71.5302C499.56 71.5302 506 65.0902 506 56.3402Z" fill="#FF6600"/>
<path d="M171.38 84.6602C177.2 84.6602 180 88.8401 180 93.0901C180 97.3401 177.4 101.86 171.38 101.86H165.31V84.6602H171.38ZM167.03 100.26H171.38C176.17 100.26 178.33 96.5302 178.26 93.0602C178.19 89.7201 176.02 86.2802 171.38 86.2802H167.03V100.26Z" fill="#212121"/>
<path d="M192.439 85.9203C192.439 87.4703 190.109 87.4703 190.109 85.9203C190.109 84.3703 192.439 84.3703 192.439 85.9203ZM190.429 89.6803V101.87H192.079V89.6803H190.429Z" fill="#212121"/>
<path d="M213.739 88.8906L214.869 89.8206L213.569 91.3706C214.479 92.3806 215.189 93.4606 215.189 95.4006C215.189 97.5406 214.009 99.7706 211.529 100.481C213.809 101.091 215.119 102.451 215.119 104.461C215.119 107.511 212.099 109.081 208.879 109.081C205.419 109.081 202.709 107.241 202.739 104.071H204.389C204.369 106.361 206.579 107.491 208.889 107.491C211.199 107.491 213.459 106.631 213.459 104.471C213.459 102.311 211.149 101.371 208.889 101.371C205.159 101.371 202.529 99.1806 202.529 95.4006C202.529 91.6206 205.849 89.4306 208.889 89.4306C210.039 89.4306 211.569 89.7706 212.479 90.4106L213.759 88.8906H213.739ZM204.179 95.4006C204.179 98.4006 206.239 99.8506 208.869 99.8506C211.669 99.8506 213.539 97.8106 213.539 95.4006C213.539 92.3806 211.249 90.9806 208.869 90.9806C206.629 90.9806 204.179 92.3606 204.179 95.4006Z" fill="#212121"/>
<path d="M227.68 85.9203C227.68 87.4703 225.35 87.4703 225.35 85.9203C225.35 84.3703 227.68 84.3703 227.68 85.9203ZM225.67 89.6803V101.87H227.32V89.6803H225.67Z" fill="#212121"/>
<path d="M241.58 86.1406V89.7506H245.51V91.1506H241.58V98.0006C241.58 99.5206 242 100.531 243.64 100.531C244.21 100.531 244.82 100.331 245.41 100.061L245.93 101.441C245.14 101.811 244.38 102.031 243.6 102.031C241 102.051 239.94 100.531 239.94 98.0006V91.1506H237.46V89.7506H239.94V86.3106L241.59 86.1406H241.58Z" fill="#212121"/>
<path d="M265.62 89.7208H267.17V101.861H265.65V99.4508C264.59 101.241 262.65 102.101 260.83 102.101C257.39 102.101 254.64 99.6408 254.64 95.7908C254.64 91.9408 257.42 89.5508 260.85 89.5508C262.72 89.5508 264.71 90.4108 265.62 92.1308V89.7208ZM256.29 95.7908C256.29 98.6708 258.35 100.561 260.91 100.561C267.17 100.561 267.17 91.0508 260.91 91.0508C258.36 91.0508 256.29 92.9408 256.29 95.7908Z" fill="#212121"/>
<path d="M280.19 84.6602V101.86H278.54V84.6602H280.19Z" fill="#212121"/>
<path d="M305.819 101.86V84.6602H307.539V101.86H305.819Z" fill="#212121"/>
<path d="M328.669 101.859V95.0593C328.669 92.4593 327.149 91.0793 324.709 91.0793C322.349 91.1093 320.729 92.9193 320.729 95.2593V101.869H319.079V89.7293H320.649L320.699 91.7693C321.709 90.2193 323.279 89.5293 324.929 89.5293C328.069 89.5293 330.329 91.3993 330.329 95.0293V101.859H328.659H328.669Z" fill="#212121"/>
<path d="M350.989 101.859V95.0593C350.989 92.4593 349.469 91.0793 347.029 91.0793C344.669 91.1093 343.049 92.9193 343.049 95.2593V101.869H341.399V89.7293H342.969L343.019 91.7693C344.029 90.2193 345.599 89.5293 347.239 89.5293C350.379 89.5293 352.649 91.3993 352.649 95.0293V101.859H350.979H350.989Z" fill="#212121"/>
<path d="M375.41 95.8198C375.41 99.5798 372.76 102.06 369.17 102.06C365.58 102.06 362.93 99.5798 362.93 95.8198C362.93 92.0598 365.53 89.5098 369.17 89.5098C372.81 89.5098 375.41 92.0698 375.41 95.8198ZM364.58 95.8198C364.58 98.6498 366.5 100.51 369.17 100.51C371.84 100.51 373.76 98.6398 373.76 95.8198C373.76 92.9998 371.87 90.9998 369.17 90.9998C366.47 90.9998 364.58 93.0098 364.58 95.8198Z" fill="#212121"/>
<path d="M396.18 89.7207L391.07 101.881H389.25L384.14 89.7207H385.96L390.16 100.061L394.36 89.7207H396.18Z" fill="#212121"/>
<path d="M415.889 89.7208H417.439V101.861H415.919V99.4508C414.859 101.241 412.919 102.101 411.099 102.101C407.659 102.101 404.909 99.6408 404.909 95.7908C404.909 91.9408 407.689 89.5508 411.129 89.5508C412.999 89.5508 414.989 90.4108 415.899 92.1308V89.7208H415.889ZM406.549 95.7908C406.549 98.6708 408.609 100.561 411.169 100.561C417.429 100.561 417.429 91.0508 411.169 91.0508C408.619 91.0508 406.549 92.9408 406.549 95.7908Z" fill="#212121"/>
<path d="M431.72 86.1406V89.7506H435.65V91.1506H431.72V98.0006C431.72 99.5206 432.14 100.531 433.78 100.531C434.35 100.531 434.96 100.331 435.55 100.061L436.07 101.441C435.28 101.811 434.52 102.031 433.74 102.031C431.14 102.051 430.08 100.531 430.08 98.0006V91.1506H427.6V89.7506H430.08V86.3106L431.73 86.1406H431.72Z" fill="#212121"/>
<path d="M457.24 95.8198C457.24 99.5798 454.59 102.06 451 102.06C447.41 102.06 444.76 99.5798 444.76 95.8198C444.76 92.0598 447.36 89.5098 451 89.5098C454.64 89.5098 457.24 92.0698 457.24 95.8198ZM446.41 95.8198C446.41 98.6498 448.33 100.51 451 100.51C453.67 100.51 455.59 98.6398 455.59 95.8198C455.59 92.9998 453.7 90.9998 451 90.9998C448.3 90.9998 446.41 93.0098 446.41 95.8198Z" fill="#212121"/>
<path d="M469.22 89.7195L469.32 91.7095C470.11 90.0895 471.73 89.5195 473.18 89.5195C474.29 89.5195 475.05 89.7695 475.93 90.3795L475.17 91.7595C474.56 91.3395 473.87 91.1195 473.08 91.1195C470.99 91.1395 469.32 92.7395 469.32 94.9495V101.85H467.67V89.7095H469.22V89.7195Z" fill="#212121"/>
<path d="M493.22 92.2109C492.09 91.1809 490.93 90.9809 489.63 90.9809C487.86 90.9609 486.29 91.5909 486.34 92.9409C486.36 94.3609 488.13 94.7109 489.66 94.9309C491.85 95.2509 494.67 95.6209 494.67 98.5709C494.62 101.121 492.14 102.111 489.68 102.111C487.59 102.111 485.53 101.421 484.3 99.7509L485.33 98.6209C486.36 100.021 488.16 100.561 489.7 100.591C491.08 100.591 493.02 100.201 493.02 98.5509C493.02 96.9009 491.45 96.6609 489.51 96.3909C487.18 96.0509 484.74 95.5109 484.72 93.0009C484.72 90.5209 487.23 89.4609 489.61 89.4909C491.43 89.4909 492.93 89.9809 494.18 91.1409L493.22 92.2209V92.2109Z" fill="#212121"/>
<path d="M69.7002 65.4814C70.2635 65.4814 70.7202 65.0247 70.7202 64.4614C70.7202 63.8981 70.2635 63.4414 69.7002 63.4414C69.1368 63.4414 68.6802 63.8981 68.6802 64.4614C68.6802 65.0247 69.1368 65.4814 69.7002 65.4814Z" fill="#4D148C"/>
<path d="M55.8799 73.2802C56.4432 73.2802 56.8999 72.8236 56.8999 72.2602C56.8999 71.6969 56.4432 71.2402 55.8799 71.2402C55.3165 71.2402 54.8599 71.6969 54.8599 72.2602C54.8599 72.8236 55.3165 73.2802 55.8799 73.2802Z" fill="#4D148C"/>
<path d="M68.17 60.9503C69.2414 60.9503 70.11 60.0817 70.11 59.0103C70.11 57.9389 69.2414 57.0703 68.17 57.0703C67.0985 57.0703 66.23 57.9389 66.23 59.0103C66.23 60.0817 67.0985 60.9503 68.17 60.9503Z" fill="#4D148C"/>
<path d="M66.8701 53.0009C67.8697 53.0009 68.6801 52.1905 68.6801 51.1909C68.6801 50.1912 67.8697 49.3809 66.8701 49.3809C65.8704 49.3809 65.0601 50.1912 65.0601 51.1909C65.0601 52.1905 65.8704 53.0009 66.8701 53.0009Z" fill="#4D148C"/>
<path d="M61.8798 73.5213C63.4428 73.5213 64.7098 72.2543 64.7098 70.6913C64.7098 69.1284 63.4428 67.8613 61.8798 67.8613C60.3168 67.8613 59.0498 69.1284 59.0498 70.6913C59.0498 72.2543 60.3168 73.5213 61.8798 73.5213Z" fill="#4D148C"/>
<path d="M62.9998 64.0416C63.9497 64.0416 64.7198 63.2715 64.7198 62.3216C64.7198 61.3716 63.9497 60.6016 62.9998 60.6016C62.0499 60.6016 61.2798 61.3716 61.2798 62.3216C61.2798 63.2715 62.0499 64.0416 62.9998 64.0416Z" fill="#4D148C"/>
<path d="M61.8798 59.0116C63.4428 59.0116 64.7098 57.7445 64.7098 56.1816C64.7098 54.6186 63.4428 53.3516 61.8798 53.3516C60.3168 53.3516 59.0498 54.6186 59.0498 56.1816C59.0498 57.7445 60.3168 59.0116 61.8798 59.0116Z" fill="#4D148C"/>
<path d="M54.8099 69.4002C55.9808 69.4002 56.9299 68.451 56.9299 67.2802C56.9299 66.1093 55.9808 65.1602 54.8099 65.1602C53.6391 65.1602 52.6899 66.1093 52.6899 67.2802C52.6899 68.451 53.6391 69.4002 54.8099 69.4002Z" fill="#4D148C"/>
<path d="M56.32 62.7298C57.3472 62.7298 58.18 61.897 58.18 60.8698C58.18 59.8425 57.3472 59.0098 56.32 59.0098C55.2927 59.0098 54.46 59.8425 54.46 60.8698C54.46 61.897 55.2927 62.7298 56.32 62.7298Z" fill="#4D148C"/>
<path d="M87.8402 108.19C89.0221 108.19 89.9802 107.232 89.9802 106.05C89.9802 104.868 89.0221 103.91 87.8402 103.91C86.6583 103.91 85.7002 104.868 85.7002 106.05C85.7002 107.232 86.6583 108.19 87.8402 108.19Z" fill="#4D148C"/>
<path d="M88.26 99.6216C89.21 99.6216 89.98 98.8516 89.98 97.9016C89.98 96.9517 89.21 96.1816 88.26 96.1816C87.3101 96.1816 86.54 96.9517 86.54 97.9016C86.54 98.8516 87.3101 99.6216 88.26 99.6216Z" fill="#4D148C"/>
<path d="M87.1498 93.6815C88.7128 93.6815 89.9798 92.4145 89.9798 90.8515C89.9798 89.2885 88.7128 88.0215 87.1498 88.0215C85.5869 88.0215 84.3198 89.2885 84.3198 90.8515C84.3198 92.4145 85.5869 93.6815 87.1498 93.6815Z" fill="#4D148C"/>
<path d="M88.8898 86.4398C89.4918 86.4398 89.9798 85.9518 89.9798 85.3498C89.9798 84.7478 89.4918 84.2598 88.8898 84.2598C88.2878 84.2598 87.7998 84.7478 87.7998 85.3498C87.7998 85.9518 88.2878 86.4398 88.8898 86.4398Z" fill="#4D148C"/>
<path d="M71.8102 102.33C72.4122 102.33 72.9002 101.842 72.9002 101.24C72.9002 100.638 72.4122 100.15 71.8102 100.15C71.2082 100.15 70.7202 100.638 70.7202 101.24C70.7202 101.842 71.2082 102.33 71.8102 102.33Z" fill="#4D148C"/>
<path d="M85.6902 103.06C86.4911 103.06 87.1402 102.411 87.1402 101.61C87.1402 100.809 86.4911 100.16 85.6902 100.16C84.8894 100.16 84.2402 100.809 84.2402 101.61C84.2402 102.411 84.8894 103.06 85.6902 103.06Z" fill="#4D148C"/>
<path d="M79.5002 105.081C80.3452 105.081 81.0302 104.396 81.0302 103.551C81.0302 102.706 80.3452 102.021 79.5002 102.021C78.6552 102.021 77.9702 102.706 77.9702 103.551C77.9702 104.396 78.6552 105.081 79.5002 105.081Z" fill="#4D148C"/>
<path d="M89.9801 77.2814C91.1785 77.2814 92.1501 76.3099 92.1501 75.1114C92.1501 73.9129 91.1785 72.9414 89.9801 72.9414C88.7816 72.9414 87.8101 73.9129 87.8101 75.1114C87.8101 76.3099 88.7816 77.2814 89.9801 77.2814Z" fill="#4D148C"/>
<path d="M88.5201 69.1915C89.3264 69.1915 89.9801 68.5378 89.9801 67.7315C89.9801 66.9252 89.3264 66.2715 88.5201 66.2715C87.7137 66.2715 87.0601 66.9252 87.0601 67.7315C87.0601 68.5378 87.7137 69.1915 88.5201 69.1915Z" fill="#4D148C"/>
<path d="M67.2198 69.3204C68.0261 69.3204 68.6798 68.6667 68.6798 67.8604C68.6798 67.0541 68.0261 66.4004 67.2198 66.4004C66.4134 66.4004 65.7598 67.0541 65.7598 67.8604C65.7598 68.6667 66.4134 69.3204 67.2198 69.3204Z" fill="#4D148C"/>
<path d="M50.0201 68.1798C50.8264 68.1798 51.4801 67.5261 51.4801 66.7198C51.4801 65.9134 50.8264 65.2598 50.0201 65.2598C49.2137 65.2598 48.5601 65.9134 48.5601 66.7198C48.5601 67.5261 49.2137 68.1798 50.0201 68.1798Z" fill="#4D148C"/>
<path d="M89.37 64.3299C90.933 64.3299 92.2 63.0629 92.2 61.4999C92.2 59.937 90.933 58.6699 89.37 58.6699C87.8071 58.6699 86.54 59.937 86.54 61.4999C86.54 63.0629 87.8071 64.3299 89.37 64.3299Z" fill="#4D148C"/>
<path d="M90.8901 56.1103C91.7296 56.1103 92.4101 55.4298 92.4101 54.5903C92.4101 53.7508 91.7296 53.0703 90.8901 53.0703C90.0506 53.0703 89.3701 53.7508 89.3701 54.5903C89.3701 55.4298 90.0506 56.1103 90.8901 56.1103Z" fill="#4D148C"/>
<path d="M85.3698 58.0404C85.9607 58.0404 86.4398 57.5613 86.4398 56.9704C86.4398 56.3794 85.9607 55.9004 85.3698 55.9004C84.7789 55.9004 84.2998 56.3794 84.2998 56.9704C84.2998 57.5613 84.7789 58.0404 85.3698 58.0404Z" fill="#4D148C"/>
<path d="M67.7702 56.1009C68.3611 56.1009 68.8402 55.6219 68.8402 55.0309C68.8402 54.44 68.3611 53.9609 67.7702 53.9609C67.1793 53.9609 66.7002 54.44 66.7002 55.0309C66.7002 55.6219 67.1793 56.1009 67.7702 56.1009Z" fill="#4D148C"/>
<path d="M77.5202 73.0013C78.1111 73.0013 78.5902 72.5223 78.5902 71.9313C78.5902 71.3404 78.1111 70.8613 77.5202 70.8613C76.9293 70.8613 76.4502 71.3404 76.4502 71.9313C76.4502 72.5223 76.9293 73.0013 77.5202 73.0013Z" fill="#4D148C"/>
<path d="M85.6398 73.0013C86.2308 73.0013 86.7098 72.5223 86.7098 71.9313C86.7098 71.3404 86.2308 70.8613 85.6398 70.8613C85.0489 70.8613 84.5698 71.3404 84.5698 71.9313C84.5698 72.5223 85.0489 73.0013 85.6398 73.0013Z" fill="#4D148C"/>
<path d="M76.4499 86.6712C77.0408 86.6712 77.5199 86.1922 77.5199 85.6012C77.5199 85.0103 77.0408 84.5312 76.4499 84.5312C75.8589 84.5312 75.3799 85.0103 75.3799 85.6012C75.3799 86.1922 75.8589 86.6712 76.4499 86.6712Z" fill="#4D148C"/>
<path d="M85.6398 79.0111C86.2308 79.0111 86.7098 78.532 86.7098 77.9411C86.7098 77.3501 86.2308 76.8711 85.6398 76.8711C85.0489 76.8711 84.5698 77.3501 84.5698 77.9411C84.5698 78.532 85.0489 79.0111 85.6398 79.0111Z" fill="#4D148C"/>
<path d="M79.0801 107.971C79.4943 107.971 79.8301 107.635 79.8301 107.221C79.8301 106.806 79.4943 106.471 79.0801 106.471C78.6659 106.471 78.3301 106.806 78.3301 107.221C78.3301 107.635 78.6659 107.971 79.0801 107.971Z" fill="#4D148C"/>
<path d="M76.6401 100.611C77.0544 100.611 77.3901 100.276 77.3901 99.8613C77.3901 99.4471 77.0544 99.1113 76.6401 99.1113C76.2259 99.1113 75.8901 99.4471 75.8901 99.8613C75.8901 100.276 76.2259 100.611 76.6401 100.611Z" fill="#4D148C"/>
<path d="M76.6399 95.2416C76.9326 95.2416 77.1699 95.0044 77.1699 94.7116C77.1699 94.4189 76.9326 94.1816 76.6399 94.1816C76.3472 94.1816 76.1099 94.4189 76.1099 94.7116C76.1099 95.0044 76.3472 95.2416 76.6399 95.2416Z" fill="#4D148C"/>
<path d="M57.8801 75.1108C58.1728 75.1108 58.4101 74.8735 58.4101 74.5808C58.4101 74.2881 58.1728 74.0508 57.8801 74.0508C57.5874 74.0508 57.3501 74.2881 57.3501 74.5808C57.3501 74.8735 57.5874 75.1108 57.8801 75.1108Z" fill="#4D148C"/>
<path d="M60.03 66.0112C60.3227 66.0112 60.56 65.7739 60.56 65.4812C60.56 65.1885 60.3227 64.9512 60.03 64.9512C59.7373 64.9512 59.5 65.1885 59.5 65.4812C59.5 65.7739 59.7373 66.0112 60.03 66.0112Z" fill="#4D148C"/>
<path d="M84.5698 96.4805C84.984 96.4805 85.3198 96.1447 85.3198 95.7305C85.3198 95.3163 84.984 94.9805 84.5698 94.9805C84.1556 94.9805 83.8198 95.3163 83.8198 95.7305C83.8198 96.1447 84.1556 96.4805 84.5698 96.4805Z" fill="#4D148C"/>
<path d="M80.57 88.5716C81.1609 88.5716 81.64 88.0926 81.64 87.5016C81.64 86.9107 81.1609 86.4316 80.57 86.4316C79.9791 86.4316 79.5 86.9107 79.5 87.5016C79.5 88.0926 79.9791 88.5716 80.57 88.5716Z" fill="#4D148C"/>
<path d="M84.3002 86.6708C85.2999 86.6708 86.1102 85.8604 86.1102 84.8608C86.1102 83.8611 85.2999 83.0508 84.3002 83.0508C83.3006 83.0508 82.4902 83.8611 82.4902 84.8608C82.4902 85.8604 83.3006 86.6708 84.3002 86.6708Z" fill="#4D148C"/>
<path d="M85.7298 54.2116C86.7957 54.2116 87.6598 53.3475 87.6598 52.2816C87.6598 51.2157 86.7957 50.3516 85.7298 50.3516C84.6639 50.3516 83.7998 51.2157 83.7998 52.2816C83.7998 53.3475 84.6639 54.2116 85.7298 54.2116Z" fill="#4D148C"/>
<path d="M88.5099 49.7209C89.8243 49.7209 90.8899 48.6554 90.8899 47.3409C90.8899 46.0265 89.8243 44.9609 88.5099 44.9609C87.1954 44.9609 86.1299 46.0265 86.1299 47.3409C86.1299 48.6554 87.1954 49.7209 88.5099 49.7209Z" fill="#4D148C"/>
<path d="M83.5602 107.581C84.1732 107.581 84.6702 107.084 84.6702 106.471C84.6702 105.858 84.1732 105.361 83.5602 105.361C82.9472 105.361 82.4502 105.858 82.4502 106.471C82.4502 107.084 82.9472 107.581 83.5602 107.581Z" fill="#4D148C"/>
<path d="M80.9199 100.94C82.1736 100.94 83.1899 99.9241 83.1899 98.6704C83.1899 97.4167 82.1736 96.4004 80.9199 96.4004C79.6662 96.4004 78.6499 97.4167 78.6499 98.6704C78.6499 99.9241 79.6662 100.94 80.9199 100.94Z" fill="#4D148C"/>
<path d="M80.3501 94.4414C81.4547 94.4414 82.3501 93.546 82.3501 92.4414C82.3501 91.3368 81.4547 90.4414 80.3501 90.4414C79.2455 90.4414 78.3501 91.3368 78.3501 92.4414C78.3501 93.546 79.2455 94.4414 80.3501 94.4414Z" fill="#4D148C"/>
<path d="M79.0801 83.1699C80.1846 83.1699 81.0801 82.2745 81.0801 81.1699C81.0801 80.0654 80.1846 79.1699 79.0801 79.1699C77.9755 79.1699 77.0801 80.0654 77.0801 81.1699C77.0801 82.2745 77.9755 83.1699 79.0801 83.1699Z" fill="#4D148C"/>
<path d="M81.26 77.6C82.5302 77.6 83.56 76.5703 83.56 75.3C83.56 74.0297 82.5302 73 81.26 73C79.9897 73 78.96 74.0297 78.96 75.3C78.96 76.5703 79.9897 77.6 81.26 77.6Z" fill="#4D148C"/>
<path d="M81.1 70.4315C82.2488 70.4315 83.18 69.5002 83.18 68.3515C83.18 67.2027 82.2488 66.2715 81.1 66.2715C79.9513 66.2715 79.02 67.2027 79.02 68.3515C79.02 69.5002 79.9513 70.4315 81.1 70.4315Z" fill="#4D148C"/>
<path d="M82.33 64.2401C83.4788 64.2401 84.41 63.3088 84.41 62.1601C84.41 61.0113 83.4788 60.0801 82.33 60.0801C81.1812 60.0801 80.25 61.0113 80.25 62.1601C80.25 63.3088 81.1812 64.2401 82.33 64.2401Z" fill="#4D148C"/>
<path d="M80.3498 56.18C81.2279 56.18 81.9398 55.4681 81.9398 54.59C81.9398 53.7119 81.2279 53 80.3498 53C79.4716 53 78.7598 53.7119 78.7598 54.59C78.7598 55.4681 79.4716 56.18 80.3498 56.18Z" fill="#4D148C"/>
<path d="M81.26 50.1714C82.4971 50.1714 83.5 49.1685 83.5 47.9314C83.5 46.6943 82.4971 45.6914 81.26 45.6914C80.0229 45.6914 79.02 46.6943 79.02 47.9314C79.02 49.1685 80.0229 50.1714 81.26 50.1714Z" fill="#4D148C"/>
<path d="M73.55 107.971C74.8203 107.971 75.85 106.941 75.85 105.671C75.85 104.401 74.8203 103.371 73.55 103.371C72.2797 103.371 71.25 104.401 71.25 105.671C71.25 106.941 72.2797 107.971 73.55 107.971Z" fill="#4D148C"/>
<path d="M72.6902 98.1509C73.7782 98.1509 74.6602 97.2689 74.6602 96.1809C74.6602 95.0929 73.7782 94.2109 72.6902 94.2109C71.6022 94.2109 70.7202 95.0929 70.7202 96.1809C70.7202 97.2689 71.6022 98.1509 72.6902 98.1509Z" fill="#4D148C"/>
<path d="M73.0502 91.6209C74.337 91.6209 75.3802 90.5778 75.3802 89.2909C75.3802 88.0041 74.337 86.9609 73.0502 86.9609C71.7634 86.9609 70.7202 88.0041 70.7202 89.2909C70.7202 90.5778 71.7634 91.6209 73.0502 91.6209Z" fill="#4D148C"/>
<path d="M72.2802 83.8915C73.1418 83.8915 73.8402 83.1931 73.8402 82.3315C73.8402 81.4699 73.1418 80.7715 72.2802 80.7715C71.4186 80.7715 70.7202 81.4699 70.7202 82.3315C70.7202 83.1931 71.4186 83.8915 72.2802 83.8915Z" fill="#4D148C"/>
<path d="M88.1 83.0399C88.9616 83.0399 89.66 82.3415 89.66 81.4799C89.66 80.6184 88.9616 79.9199 88.1 79.9199C87.2385 79.9199 86.54 80.6184 86.54 81.4799C86.54 82.3415 87.2385 83.0399 88.1 83.0399Z" fill="#4D148C"/>
<path d="M73.55 77.6312C74.8203 77.6312 75.85 76.6015 75.85 75.3313C75.85 74.061 74.8203 73.0312 73.55 73.0312C72.2797 73.0312 71.25 74.061 71.25 75.3313C71.25 76.6015 72.2797 77.6312 73.55 77.6312Z" fill="#4D148C"/>
<path d="M73.8498 69.8901C74.971 69.8901 75.8798 68.9812 75.8798 67.8601C75.8798 66.7389 74.971 65.8301 73.8498 65.8301C72.7287 65.8301 71.8198 66.7389 71.8198 67.8601C71.8198 68.9812 72.7287 69.8901 73.8498 69.8901Z" fill="#4D148C"/>
<path d="M75.29 62.6113C76.3946 62.6113 77.29 61.7159 77.29 60.6113C77.29 59.5068 76.3946 58.6113 75.29 58.6113C74.1855 58.6113 73.29 59.5068 73.29 60.6113C73.29 61.7159 74.1855 62.6113 75.29 62.6113Z" fill="#4D148C"/>
<path d="M73.5499 56.9709C74.8644 56.9709 75.9299 55.9054 75.9299 54.5909C75.9299 53.2765 74.8644 52.2109 73.5499 52.2109C72.2355 52.2109 71.1699 53.2765 71.1699 54.5909C71.1699 55.9054 72.2355 56.9709 73.5499 56.9709Z" fill="#4D148C"/>
<path d="M75.1002 50.1701C76.4367 50.1701 77.5202 49.0866 77.5202 47.7501C77.5202 46.4135 76.4367 45.3301 75.1002 45.3301C73.7636 45.3301 72.6802 46.4135 72.6802 47.7501C72.6802 49.0866 73.7636 50.1701 75.1002 50.1701Z" fill="#4D148C"/>
<path d="M36.1802 65.4814C36.7435 65.4814 37.2002 65.0247 37.2002 64.4614C37.2002 63.8981 36.7435 63.4414 36.1802 63.4414C35.6168 63.4414 35.1602 63.8981 35.1602 64.4614C35.1602 65.0247 35.6168 65.4814 36.1802 65.4814Z" fill="#4D148C"/>
<path d="M50 73.2802C50.5633 73.2802 51.02 72.8236 51.02 72.2602C51.02 71.6969 50.5633 71.2402 50 71.2402C49.4367 71.2402 48.98 71.6969 48.98 72.2602C48.98 72.8236 49.4367 73.2802 50 73.2802Z" fill="#4D148C"/>
<path d="M37.71 60.9503C38.7815 60.9503 39.65 60.0817 39.65 59.0103C39.65 57.9389 38.7815 57.0703 37.71 57.0703C36.6386 57.0703 35.77 57.9389 35.77 59.0103C35.77 60.0817 36.6386 60.9503 37.71 60.9503Z" fill="#4D148C"/>
<path d="M39.0102 53.0009C40.0098 53.0009 40.8202 52.1905 40.8202 51.1909C40.8202 50.1912 40.0098 49.3809 39.0102 49.3809C38.0106 49.3809 37.2002 50.1912 37.2002 51.1909C37.2002 52.1905 38.0106 53.0009 39.0102 53.0009Z" fill="#4D148C"/>
<path d="M43.9999 73.5213C45.5629 73.5213 46.8299 72.2543 46.8299 70.6913C46.8299 69.1284 45.5629 67.8613 43.9999 67.8613C42.437 67.8613 41.1699 69.1284 41.1699 70.6913C41.1699 72.2543 42.437 73.5213 43.9999 73.5213Z" fill="#4D148C"/>
<path d="M43.4202 64.311C44.6683 64.311 45.6802 63.2992 45.6802 62.051C45.6802 60.8029 44.6683 59.791 43.4202 59.791C42.172 59.791 41.1602 60.8029 41.1602 62.051C41.1602 63.2992 42.172 64.311 43.4202 64.311Z" fill="#4D148C"/>
<path d="M43.0899 56.8908C43.8742 56.8908 44.5099 56.255 44.5099 55.4708C44.5099 54.6865 43.8742 54.0508 43.0899 54.0508C42.3057 54.0508 41.6699 54.6865 41.6699 55.4708C41.6699 56.255 42.3057 56.8908 43.0899 56.8908Z" fill="#4D148C"/>
<path d="M52.8701 77.9405C53.9637 77.9405 54.8501 77.054 54.8501 75.9605C54.8501 74.8669 53.9637 73.9805 52.8701 73.9805C51.7766 73.9805 50.8901 74.8669 50.8901 75.9605C50.8901 77.054 51.7766 77.9405 52.8701 77.9405Z" fill="#4D148C"/>
<path d="M48.2598 62.8809C48.9281 62.8809 49.4698 62.3392 49.4698 61.6709C49.4698 61.0027 48.9281 60.4609 48.2598 60.4609C47.5915 60.4609 47.0498 61.0027 47.0498 61.6709C47.0498 62.3392 47.5915 62.8809 48.2598 62.8809Z" fill="#4D148C"/>
<path d="M14.9901 107.811C16.172 107.811 17.1301 106.853 17.1301 105.671C17.1301 104.489 16.172 103.531 14.9901 103.531C13.8082 103.531 12.8501 104.489 12.8501 105.671C12.8501 106.853 13.8082 107.811 14.9901 107.811Z" fill="#4D148C"/>
<path d="M16.6799 83.5316C17.8121 83.5316 18.7299 82.6138 18.7299 81.4816C18.7299 80.3495 17.8121 79.4316 16.6799 79.4316C15.5477 79.4316 14.6299 80.3495 14.6299 81.4816C14.6299 82.6138 15.5477 83.5316 16.6799 83.5316Z" fill="#4D148C"/>
<path d="M9.11979 77.93C9.72178 77.93 10.2098 77.442 10.2098 76.84C10.2098 76.238 9.72178 75.75 9.11979 75.75C8.51779 75.75 8.02979 76.238 8.02979 76.84C8.02979 77.442 8.51779 77.93 9.11979 77.93Z" fill="#4D148C"/>
<path d="M34.07 102.33C34.672 102.33 35.16 101.842 35.16 101.24C35.16 100.638 34.672 100.15 34.07 100.15C33.468 100.15 32.98 100.638 32.98 101.24C32.98 101.842 33.468 102.33 34.07 102.33Z" fill="#4D148C"/>
<path d="M12.0198 93.0602C12.8206 93.0602 13.4698 92.411 13.4698 91.6102C13.4698 90.8093 12.8206 90.1602 12.0198 90.1602C11.219 90.1602 10.5698 90.8093 10.5698 91.6102C10.5698 92.411 11.219 93.0602 12.0198 93.0602Z" fill="#4D148C"/>
<path d="M23.6501 101.39C24.4951 101.39 25.1801 100.705 25.1801 99.8601C25.1801 99.0151 24.4951 98.3301 23.6501 98.3301C22.8051 98.3301 22.1201 99.0151 22.1201 99.8601C22.1201 100.705 22.8051 101.39 23.6501 101.39Z" fill="#4D148C"/>
<path d="M6.17982 62.7298C7.20707 62.7298 8.03982 61.897 8.03982 60.8698C8.03982 59.8425 7.20707 59.0098 6.17982 59.0098C5.15257 59.0098 4.31982 59.8425 4.31982 60.8698C4.31982 61.897 5.15257 62.7298 6.17982 62.7298Z" fill="#4D148C"/>
<path d="M38.6602 69.3204C39.4665 69.3204 40.1202 68.6667 40.1202 67.8604C40.1202 67.0541 39.4665 66.4004 38.6602 66.4004C37.8539 66.4004 37.2002 67.0541 37.2002 67.8604C37.2002 68.6667 37.8539 69.3204 38.6602 69.3204Z" fill="#4D148C"/>
<path d="M15.4399 55.0409C17.0028 55.0409 18.2699 53.7738 18.2699 52.2109C18.2699 50.6479 17.0028 49.3809 15.4399 49.3809C13.8769 49.3809 12.6099 50.6479 12.6099 52.2109C12.6099 53.7738 13.8769 55.0409 15.4399 55.0409Z" fill="#4D148C"/>
<path d="M4.66014 47.2002C5.49961 47.2002 6.18014 46.5196 6.18014 45.6802C6.18014 44.8407 5.49961 44.1602 4.66014 44.1602C3.82066 44.1602 3.14014 44.8407 3.14014 45.6802C3.14014 46.5196 3.82066 47.2002 4.66014 47.2002Z" fill="#4D148C"/>
<path d="M0.92 35.0607C1.4281 35.0607 1.84 34.6488 1.84 34.1407C1.84 33.6326 1.4281 33.2207 0.92 33.2207C0.411898 33.2207 0 33.6326 0 34.1407C0 34.6488 0.411898 35.0607 0.92 35.0607Z" fill="#4D148C"/>
<path d="M38.11 56.1009C38.701 56.1009 39.18 55.6219 39.18 55.0309C39.18 54.44 38.701 53.9609 38.11 53.9609C37.5191 53.9609 37.04 54.44 37.04 55.0309C37.04 55.6219 37.5191 56.1009 38.11 56.1009Z" fill="#4D148C"/>
<path d="M28.36 73.0013C28.951 73.0013 29.43 72.5223 29.43 71.9313C29.43 71.3404 28.951 70.8613 28.36 70.8613C27.7691 70.8613 27.29 71.3404 27.29 71.9313C27.29 72.5223 27.7691 73.0013 28.36 73.0013Z" fill="#4D148C"/>
<path d="M19.5798 73.0013C20.1707 73.0013 20.6498 72.5223 20.6498 71.9313C20.6498 71.3404 20.1707 70.8613 19.5798 70.8613C18.9888 70.8613 18.5098 71.3404 18.5098 71.9313C18.5098 72.5223 18.9888 73.0013 19.5798 73.0013Z" fill="#4D148C"/>
<path d="M29.4299 86.6712C30.0208 86.6712 30.4999 86.1922 30.4999 85.6012C30.4999 85.0103 30.0208 84.5312 29.4299 84.5312C28.8389 84.5312 28.3599 85.0103 28.3599 85.6012C28.3599 86.1922 28.8389 86.6712 29.4299 86.6712Z" fill="#4D148C"/>
<path d="M26.7998 107.971C27.214 107.971 27.5498 107.635 27.5498 107.221C27.5498 106.806 27.214 106.471 26.7998 106.471C26.3856 106.471 26.0498 106.806 26.0498 107.221C26.0498 107.635 26.3856 107.971 26.7998 107.971Z" fill="#4D148C"/>
<path d="M29.2402 100.611C29.6544 100.611 29.9902 100.276 29.9902 99.8613C29.9902 99.4471 29.6544 99.1113 29.2402 99.1113C28.826 99.1113 28.4902 99.4471 28.4902 99.8613C28.4902 100.276 28.826 100.611 29.2402 100.611Z" fill="#4D148C"/>
<path d="M29.24 95.2416C29.5327 95.2416 29.77 95.0044 29.77 94.7116C29.77 94.4189 29.5327 94.1816 29.24 94.1816C28.9473 94.1816 28.71 94.4189 28.71 94.7116C28.71 95.0044 28.9473 95.2416 29.24 95.2416Z" fill="#4D148C"/>
<path d="M48.0002 75.1108C48.2929 75.1108 48.5302 74.8735 48.5302 74.5808C48.5302 74.2881 48.2929 74.0508 48.0002 74.0508C47.7075 74.0508 47.4702 74.2881 47.4702 74.5808C47.4702 74.8735 47.7075 75.1108 48.0002 75.1108Z" fill="#4D148C"/>
<path d="M52.34 64.6605C52.7819 64.6605 53.14 64.3024 53.14 63.8605C53.14 63.4187 52.7819 63.0605 52.34 63.0605C51.8982 63.0605 51.54 63.4187 51.54 63.8605C51.54 64.3024 51.8982 64.6605 52.34 64.6605Z" fill="#4D148C"/>
<path d="M45.32 58.5815C45.6127 58.5815 45.85 58.3442 45.85 58.0515C45.85 57.7588 45.6127 57.5215 45.32 57.5215C45.0273 57.5215 44.79 57.7588 44.79 58.0515C44.79 58.3442 45.0273 58.5815 45.32 58.5815Z" fill="#4D148C"/>
<path d="M51.3698 62.2006C51.6626 62.2006 51.8998 61.9633 51.8998 61.6706C51.8998 61.3779 51.6626 61.1406 51.3698 61.1406C51.0771 61.1406 50.8398 61.3779 50.8398 61.6706C50.8398 61.9633 51.0771 62.2006 51.3698 62.2006Z" fill="#4D148C"/>
<path d="M45.6799 66.6108C45.9726 66.6108 46.2099 66.3735 46.2099 66.0808C46.2099 65.7881 45.9726 65.5508 45.6799 65.5508C45.3872 65.5508 45.1499 65.7881 45.1499 66.0808C45.1499 66.3735 45.3872 66.6108 45.6799 66.6108Z" fill="#4D148C"/>
<path d="M18.5098 97.2402C18.924 97.2402 19.2598 96.9044 19.2598 96.4902C19.2598 96.076 18.924 95.7402 18.5098 95.7402C18.0956 95.7402 17.7598 96.076 17.7598 96.4902C17.7598 96.9044 18.0956 97.2402 18.5098 97.2402Z" fill="#4D148C"/>
<path d="M23.3898 85.7416C23.9808 85.7416 24.4598 85.2625 24.4598 84.6716C24.4598 84.0806 23.9808 83.6016 23.3898 83.6016C22.7989 83.6016 22.3198 84.0806 22.3198 84.6716C22.3198 85.2625 22.7989 85.7416 23.3898 85.7416Z" fill="#4D148C"/>
<path d="M12.6102 37.5104C13.538 37.5104 14.2902 36.7582 14.2902 35.8304C14.2902 34.9026 13.538 34.1504 12.6102 34.1504C11.6823 34.1504 10.9302 34.9026 10.9302 35.8304C10.9302 36.7582 11.6823 37.5104 12.6102 37.5104Z" fill="#4D148C"/>
<path d="M22.0001 107.161C22.6132 107.161 23.1101 106.664 23.1101 106.051C23.1101 105.438 22.6132 104.941 22.0001 104.941C21.3871 104.941 20.8901 105.438 20.8901 106.051C20.8901 106.664 21.3871 107.161 22.0001 107.161Z" fill="#4D148C"/>
<path d="M24.2402 93.6113C25.3448 93.6113 26.2402 92.7159 26.2402 91.6113C26.2402 90.5068 25.3448 89.6113 24.2402 89.6113C23.1357 89.6113 22.2402 90.5068 22.2402 91.6113C22.2402 92.7159 23.1357 93.6113 24.2402 93.6113Z" fill="#4D148C"/>
<path d="M25.9499 79.7113C27.2202 79.7113 28.2499 78.6816 28.2499 77.4113C28.2499 76.1411 27.2202 75.1113 25.9499 75.1113C24.6796 75.1113 23.6499 76.1411 23.6499 77.4113C23.6499 78.6816 24.6796 79.7113 25.9499 79.7113Z" fill="#4D148C"/>
<path d="M22.7001 64.4002C23.8489 64.4002 24.7801 63.469 24.7801 62.3202C24.7801 61.1715 23.8489 60.2402 22.7001 60.2402C21.5514 60.2402 20.6201 61.1715 20.6201 62.3202C20.6201 63.469 21.5514 64.4002 22.7001 64.4002Z" fill="#4D148C"/>
<path d="M24.7799 52.9515C25.6581 52.9515 26.3699 52.2396 26.3699 51.3615C26.3699 50.4834 25.6581 49.7715 24.7799 49.7715C23.9018 49.7715 23.1899 50.4834 23.1899 51.3615C23.1899 52.2396 23.9018 52.9515 24.7799 52.9515Z" fill="#4D148C"/>
<path d="M23.1199 45.4409C24.357 45.4409 25.3599 44.4381 25.3599 43.2009C25.3599 41.9638 24.357 40.9609 23.1199 40.9609C21.8828 40.9609 20.8799 41.9638 20.8799 43.2009C20.8799 44.4381 21.8828 45.4409 23.1199 45.4409Z" fill="#4D148C"/>
<path d="M32.3298 107.971C33.6 107.971 34.6298 106.941 34.6298 105.671C34.6298 104.401 33.6 103.371 32.3298 103.371C31.0595 103.371 30.0298 104.401 30.0298 105.671C30.0298 106.941 31.0595 107.971 32.3298 107.971Z" fill="#4D148C"/>
<path d="M33.1902 98.1509C34.2782 98.1509 35.1602 97.2689 35.1602 96.1809C35.1602 95.0929 34.2782 94.2109 33.1902 94.2109C32.1022 94.2109 31.2202 95.0929 31.2202 96.1809C31.2202 97.2689 32.1022 98.1509 33.1902 98.1509Z" fill="#4D148C"/>
<path d="M32.83 91.6209C34.1168 91.6209 35.16 90.5778 35.16 89.2909C35.16 88.0041 34.1168 86.9609 32.83 86.9609C31.5432 86.9609 30.5 88.0041 30.5 89.2909C30.5 90.5778 31.5432 91.6209 32.83 91.6209Z" fill="#4D148C"/>
<path d="M33.6 83.8915C34.4616 83.8915 35.16 83.1931 35.16 82.3315C35.16 81.4699 34.4616 80.7715 33.6 80.7715C32.7385 80.7715 32.04 81.4699 32.04 82.3315C32.04 83.1931 32.7385 83.8915 33.6 83.8915Z" fill="#4D148C"/>
<path d="M12.6098 68.8407C13.4714 68.8407 14.1698 68.1423 14.1698 67.2807C14.1698 66.4191 13.4714 65.7207 12.6098 65.7207C11.7482 65.7207 11.0498 66.4191 11.0498 67.2807C11.0498 68.1423 11.7482 68.8407 12.6098 68.8407Z" fill="#4D148C"/>
<path d="M32.3298 77.6312C33.6 77.6312 34.6298 76.6015 34.6298 75.3313C34.6298 74.061 33.6 73.0312 32.3298 73.0312C31.0595 73.0312 30.0298 74.061 30.0298 75.3313C30.0298 76.6015 31.0595 77.6312 32.3298 77.6312Z" fill="#4D148C"/>
<path d="M32.03 69.8901C33.1511 69.8901 34.06 68.9812 34.06 67.8601C34.06 66.7389 33.1511 65.8301 32.03 65.8301C30.9089 65.8301 30 66.7389 30 67.8601C30 68.9812 30.9089 69.8901 32.03 69.8901Z" fill="#4D148C"/>
<path d="M30.5898 62.6113C31.6944 62.6113 32.5898 61.7159 32.5898 60.6113C32.5898 59.5068 31.6944 58.6113 30.5898 58.6113C29.4853 58.6113 28.5898 59.5068 28.5898 60.6113C28.5898 61.7159 29.4853 62.6113 30.5898 62.6113Z" fill="#4D148C"/>
<path d="M32.0802 56.3401C33.3946 56.3401 34.4602 55.2745 34.4602 53.9601C34.4602 52.6456 33.3946 51.5801 32.0802 51.5801C30.7658 51.5801 29.7002 52.6456 29.7002 53.9601C29.7002 55.2745 30.7658 56.3401 32.0802 56.3401Z" fill="#4D148C"/>
<path d="M29.4302 49.7198C30.2255 49.7198 30.8702 49.0751 30.8702 48.2798C30.8702 47.4846 30.2255 46.8398 29.4302 46.8398C28.6349 46.8398 27.9902 47.4846 27.9902 48.2798C27.9902 49.0751 28.6349 49.7198 29.4302 49.7198Z" fill="#4D148C"/>
<path d="M101.21 8.6C101.25 2.53 106.35 0 112.16 0C117.97 0 122.96 2.68 122.96 8.23C122.96 14.71 118.31 16.87 112.05 16.87C110.26 16.87 107.81 17.17 107.81 20.18H122.78V26.43H100.78V20.36C100.78 12.62 106.7 11.05 112.06 11.05C113.51 11.05 115.71 10.45 115.71 8.33C115.71 6.51 113.96 5.84 112.17 5.84C110.01 5.84 108.6 6.62 108.41 8.59H101.22L101.21 8.6Z" fill="#FF6600"/>
<path d="M93.0699 0.130859H17.1099V6.29086H93.0699V0.130859Z" fill="#FF6600"/>
<path d="M23.2801 0.320312H17.1201V26.4403H23.2801V0.320312Z" fill="#FF6600"/>
<path d="M122.71 33.2305H116.55V107.7H122.71V33.2305Z" fill="#FF6600"/>
<path d="M122.7 101.57H99.0498V107.69H122.7V101.57Z" fill="#FF6600"/>
</g>
<defs>
<clipPath id="clip0_2226_121807">
<rect width="511.73" height="109.08" fill="white"/>
</clipPath>
</defs>
</svg>
